<svg height="512pt" viewBox="0 0 512 512" width="512pt" xmlns="http://www.w3.org/2000/svg"><path d="m30 10h344c11.046875 0 20 8.953125 20 20v344c0 11.046875-8.953125 20-20 20h-344c-11.046875 0-20-8.953125-20-20v-344c0-11.046875 8.953125-20 20-20zm0 0" fill="#ffcb7c"/><path d="m259.601562 142.398438-28.800781-28.796876-28.800781 28.796876-28.800781-28.796876-28.800781 28.796876v-132.398438h115.203124zm0 0" fill="#fff"/><path d="m350.746094 200.875h38.5v37.125h-38.5zm0 0" fill="#b0e7f8"/><path d="m406.4375 163.75h-72.875c-10.253906 0-18.5625 8.3125-18.5625 18.5625s8.308594 18.5625 18.5625 18.5625h72.875c10.25 0 18.5625-8.3125 18.5625-18.5625s-8.3125-18.5625-18.5625-18.5625zm0 0" fill="#00ccf2"/><path d="m446.925781 259.070312 17.027344-17.027343c3.726563-3.726563 9.769531-3.726563 13.492187 0l14.6875 14.683593c3.726563 3.726563 3.726563 9.765626 0 13.492188l-17.027343 17.027344zm0 0" fill="#00ccf2"/><path d="m502 370c0 72.902344-59.097656 132-132 132s-132-59.097656-132-132 59.097656-132 132-132 132 59.097656 132 132zm0 0" fill="#b0e7f8"/><path d="m462 370c0 50.808594-41.191406 92-92 92s-92-41.191406-92-92 41.191406-92 92-92 92 41.191406 92 92zm0 0" fill="#fff"/><path d="m73.222656 303.15625h47.777344c5.523438 0 10-4.476562 10-10 0-5.519531-4.476562-10-10-10h-47.777344c-5.523437 0-10 4.480469-10 10 0 5.523438 4.476563 10 10 10zm0 0"/><path d="m158.511719 324.402344h-85.289063c-5.523437 0-10 4.476562-10 10 0 5.523437 4.476563 10 10 10h85.289063c5.523437 0 10-4.476563 10-10 0-5.523438-4.476563-10-10-10zm0 0"/><path d="m198.511719 324.398438c-2.632813 0-5.210938 1.070312-7.070313 2.929687-1.859375 1.863281-2.929687 4.441406-2.929687 7.070313 0 2.640624 1.066406 5.210937 2.929687 7.070312 1.859375 1.859375 4.4375 2.929688 7.070313 2.929688 2.636719 0 5.207031-1.070313 7.066406-2.929688 1.871094-1.859375 2.933594-4.4375 2.933594-7.070312 0-2.628907-1.0625-5.207032-2.933594-7.070313-1.859375-1.859375-4.429687-2.929687-7.066406-2.929687zm0 0"/><path d="m370 268c-56.242188 0-102 45.757812-102 102s45.757812 102 102 102 102-45.757812 102-102-45.757812-102-102-102zm0 184c-45.214844 0-82-36.785156-82-82s36.785156-82 82-82c19.011719 0 36.515625 6.519531 50.4375 17.417969l-13.527344 13.527343c-10.671875-7.75-23.46875-11.945312-36.914062-11.945312-34.734375 0-63 28.261719-63 63 0 5.523438 4.480468 10 10 10 5.523437 0 10-4.476562 10-10 0-23.710938 19.292968-43 43-43 8.074218 0 15.804687 2.21875 22.507812 6.351562l-29.578125 29.578126c-3.90625 3.90625-3.90625 10.234374 0 14.140624 1.953125 1.953126 4.511719 2.929688 7.070313 2.929688s5.117187-.976562 7.070312-2.929688l57.511719-57.507812c10.902344 13.921875 17.421875 31.425781 17.421875 50.4375 0 45.214844-36.785156 82-82 82zm0 0"/><path d="m487.003906 289.488281 12.199219-12.199219c7.617187-7.617187 7.617187-20.015624 0-27.632812l-14.6875-14.6875c-7.617187-7.617188-20.015625-7.617188-27.632813 0l-13.441406 13.441406c-13.636718-8.269531-28.542968-14.140625-44.195312-17.402344v-20.132812h7.1875c15.75 0 28.5625-12.8125 28.5625-28.5625s-12.8125-28.5625-28.5625-28.5625h-2.433594v-123.75c0-16.542969-13.457031-30-30-30h-344c-16.542969 0-30 13.457031-30 30v344c0 16.542969 13.457031 30 30 30h202.078125c2.371094 9.6875 5.757813 19.0625 10.101563 28h-57.679688c-5.523438 0-10 4.476562-10 10s4.476562 10 10 10h69.53125c4.617188 6.5 9.808594 12.65625 15.558594 18.410156.539062.535156 1.085937 1.0625 1.632812 1.589844h-134.222656c-5.523438 0-10 4.476562-10 10s4.476562 10 10 10h160.226562c21.773438 13.039062 46.738282 20 72.773438 20 37.929688 0 73.589844-14.769531 100.410156-41.589844 26.820313-26.820312 41.589844-62.480468 41.589844-100.410156 0-29.179688-8.75-57.011719-24.996094-80.511719zm-16.304687-40.050781 14.035156 14.035156-10.308594 10.3125c-1.3125-1.417968-2.644531-2.820312-4.015625-4.195312-3.339844-3.335938-6.816406-6.488282-10.414062-9.449219zm-91.453125-21.132812c-3.0625-.195313-6.144532-.304688-9.246094-.304688s-6.183594.109375-9.253906.304688v-17.429688h18.5zm35.753906-45.992188c0 4.722656-3.84375 8.5625-8.5625 8.5625h-72.875c-4.722656 0-8.566406-3.839844-8.566406-8.5625s3.84375-8.5625 8.566406-8.5625h72.875c4.71875 0 8.5625 3.839844 8.5625 8.5625zm-165.398438-162.3125v98.257812l-11.730468-11.730468c-3.90625-3.902344-10.234375-3.902344-14.144532 0l-21.726562 21.730468-21.730469-21.730468c-1.953125-1.953125-4.511719-2.925782-7.070312-2.925782-2.558594 0-5.117188.972657-7.070313 2.925782l-11.730468 11.730468v-98.257812zm-219.601562 364c-5.515625 0-10-4.484375-10-10v-344c0-5.515625 4.484375-10 10-10h104.398438v122.398438c0 4.046874 2.4375 7.691406 6.175781 9.242187 3.734375 1.546875 8.039062.6875 10.898437-2.167969l21.726563-21.730468 21.730469 21.730468c3.90625 3.90625 10.234374 3.90625 14.140624 0l21.730469-21.730468 21.730469 21.730468c1.910156 1.914063 4.46875 2.929688 7.070312 2.929688 1.289063 0 2.589844-.25 3.828126-.761719 3.734374-1.550781 6.171874-5.195313 6.171874-9.242187v-122.398438h104.398438c5.515625 0 10 4.484375 10 10v123.75h-50.4375c-15.75 0-28.5625 12.8125-28.5625 28.5625s12.8125 28.5625 28.5625 28.5625h7.1875v20.132812c-26.773438 5.578126-51.371094 18.796876-71.15625 38.582032-26.824219 26.820312-41.59375 62.480468-41.59375 100.410156 0 4.707031.230469 9.378906.679688 14zm426.265625 72.265625c-23.039063 23.042969-53.675781 35.734375-86.265625 35.734375s-63.226562-12.691406-86.265625-35.734375c-23.042969-23.042969-35.734375-53.679687-35.734375-86.265625s12.691406-63.222656 35.734375-86.265625c23.039063-23.042969 53.675781-35.734375 86.265625-35.734375s63.226562 12.691406 86.265625 35.734375c23.042969 23.042969 35.734375 53.679687 35.734375 86.265625s-12.691406 63.222656-35.734375 86.265625zm0 0"/><path d="m97 472c-2.628906 0-5.210938 1.070312-7.070312 2.929688-1.859376 1.859374-2.929688 4.441406-2.929688 7.070312s1.070312 5.210938 2.929688 7.070312c1.859374 1.859376 4.441406 2.929688 7.070312 2.929688s5.210938-1.070312 7.070312-2.929688c1.859376-1.859374 2.929688-4.441406 2.929688-7.070312s-1.070312-5.210938-2.929688-7.070312c-1.859374-1.859376-4.441406-2.929688-7.070312-2.929688zm0 0"/></svg>